<?xml version="1.0" encoding="UTF-8"?>
<svg id="Layer_3" data-name="Layer 3" xmlns="http://www.w3.org/2000/svg" viewBox="0 0 521 180">
  <defs>
    <style>
      .cls-1 {
        fill: #cac74a;
      }

      .cls-1, .cls-2 {
        stroke-width: 0px;
      }

      .cls-2 {
        fill: #828347;
      }

      .cls-3 {
        fill: #666;
        font-family: Poppins-Medium, Poppins;
        font-size: 22px;
        font-weight: 500;
        letter-spacing: .37em;
      }
    </style>
  </defs>
  <polygon class="cls-2" points="313.44 32.11 289.44 72.13 266.44 31.13 266.44 31.13 289.44 44.13 313.44 31.13 313.44 32.11"/>
  <circle class="cls-2" cx="289.94" cy="21.63" r="11.5"/>
  <text class="cls-3" transform="translate(97.76 157.06)"><tspan x="0" y="0">find fulfilling work</tspan></text>
  <g>
    <path class="cls-1" d="M32.99,52.71l-.29-2.23c.29.1.68.15,1.17.15,1.22.2,2.17.29,2.86.29l2.49-.22c.83-.07,1.65-.15,2.45-.22-.1.61-.15,1.51-.15,2.71l-.44,25.49c0,.2.02.49.07.88.05.39.07.65.07.77,0,.42.26.62.77.62.34-.24.78-.56,1.3-.95.53-.39.98-.78,1.37-1.17,1.9-1.71,3.21-2.95,3.92-3.74l4.8-4.65,18.6-19.96c.78.1,1.93.15,3.44.15.44,0,1.13-.02,2.09-.07s1.66-.07,2.12-.07l-21.61,21.17-8.09,8.24c1.59,1.83,4.42,5.04,8.5,9.61,4.08,4.58,7.02,7.89,8.83,9.92s3.77,4.33,5.9,6.87l7.8,9.16v.59c-.54-.05-1.37-.13-2.49-.26s-1.99-.18-2.6-.18-1.46.06-2.64.18-2.09.21-2.75.26c-3.91-4.93-6.17-7.73-6.77-8.39l-12.89-15.45-8.09-9.16s-.22-.02-.51-.07-.62-.07-.99-.07c-.1.2-.15.65-.15,1.36,0,1.1.02,2.77.07,5.02.05,2.25.07,3.92.07,5.02v9.89l.29,9.45.15,2.42c-1.59-.1-3.98-.15-7.18-.15l-1.79.15c0-1.1.05-1.95.15-2.56l.59-16.92c0-1.44.02-3.65.07-6.63.05-2.98.07-5.22.07-6.74s-.02-3.64-.07-6.45c-.05-2.81-.07-4.91-.07-6.3l-.29-9.01-.15-8.72Z"/>
    <path class="cls-1" d="M145.96,50.48c.93,0,2.37.1,4.32.29,1.42,0,2.47-.1,3.15-.29-.29.46-1.31,1.93-3.06,4.39-1.75,2.47-2.97,4.25-3.68,5.35l-10.51,16.96c-2.12,3.27-4.07,6.82-5.82,10.66l.29,19.48.29,8.72c-2.2-.2-3.89-.29-5.09-.29-1,0-2.41.1-4.21.29,0-.9.05-1.55.15-1.94l.48-9.45.15-9.6v-6.01l-23.4-38.56c2.39.2,4.14.29,5.24.29,2.39,0,4.19-.1,5.38-.29,4.59,8.74,7.69,14.54,9.3,17.4l7.8,13.37c.54.95.89,1.5,1.06,1.65.78-.61,1.73-2.01,2.86-4.21,3.83-6.32,8.13-14.17,12.89-23.55l2.42-4.65Z"/>
    <path class="cls-1" d="M202.35,49.13l27.17,63.46,1.65,3.44c-2.2-.2-3.8-.29-4.8-.29-2.42,0-4.17.1-5.27.29l-.88-2.86-4.36-11.39-4.65-11.39-11.54-.33-12.93.33c-4.71,12.01-7.86,20.56-9.45,25.63-.68-.2-1.78-.29-3.3-.29-.78,0-1.98.1-3.59.29l29.99-66.91h1.94ZM209.71,86.33l-10.66-24.61-10.47,24.61h21.13Z"/>
    <path class="cls-1" d="M262.07,49.42l13.04,25.38c4.71,8.94,9.62,17.68,14.72,26.22,1.56-2.86,2.92-5.32,4.08-7.38,1.16-2.06,2.29-4.14,3.39-6.24l12.6-23.25c.59-1.05,1.83-3.24,3.72-6.57,1.89-3.33,3.41-6.05,4.56-8.15h1.17l4.65,41.71c.46,4.1,1.02,8.58,1.67,13.42.65,4.85,1.14,8.67,1.48,11.48-1.76-.2-3.15-.29-4.17-.29-2.2,0-3.8.1-4.8.29l-3-34.94c-.61-4.76-1.21-9.51-1.79-14.25l-13.51,24.72-5.09,9.92c-.76,1.49-1.74,3.52-2.95,6.08-1.21,2.56-2.44,5.14-3.68,7.73h-1.03l-5.27-10.8c-1.51-3.2-3.31-6.83-5.38-10.9-2.08-4.06-4.25-8.25-6.52-12.56s-4.75-9.04-7.43-14.19l-4.21,37.5-.44,9.59v2.09c-.39,0-.99-.02-1.79-.07s-1.45-.07-1.94-.07c-1.32,0-2.32.05-3,.15v-.92l3.3-19.78,4.65-34.83c.2-1.27.4-2.85.62-4.74s.46-4.01.73-6.35h1.65Z"/>
    <path class="cls-1" d="M361.24,49.42l13.04,25.38c4.71,8.94,9.62,17.68,14.72,26.22,1.56-2.86,2.92-5.32,4.08-7.38,1.16-2.06,2.29-4.14,3.39-6.24l12.6-23.25c.59-1.05,1.83-3.24,3.72-6.57,1.89-3.33,3.41-6.05,4.56-8.15h1.17l4.65,41.71c.46,4.1,1.02,8.58,1.67,13.42.65,4.85,1.14,8.67,1.48,11.48-1.76-.2-3.15-.29-4.17-.29-2.2,0-3.8.1-4.8.29l-3-34.94c-.61-4.76-1.21-9.51-1.79-14.25l-13.51,24.72-5.09,9.92c-.76,1.49-1.74,3.52-2.95,6.08-1.21,2.56-2.44,5.14-3.68,7.73h-1.03l-5.27-10.8c-1.51-3.2-3.31-6.83-5.38-10.9-2.08-4.06-4.25-8.25-6.52-12.56s-4.75-9.04-7.43-14.19l-4.21,37.5-.44,9.59v2.09c-.39,0-.99-.02-1.79-.07s-1.45-.07-1.94-.07c-1.32,0-2.32.05-3,.15v-.92l3.3-19.78,4.65-34.83c.2-1.27.4-2.85.62-4.74s.46-4.01.73-6.35h1.65Z"/>
    <path class="cls-1" d="M477.79,50.63c2.2,0,5.49-.1,9.89-.29,0,.29-.05.75-.15,1.35-.1.61-.15,1.11-.15,1.5,0,1.29.1,2.25.29,2.86-.95-.05-2.25-.15-3.9-.29-1.65-.15-3.19-.26-4.63-.33l-9.59-.29h-7.07l-.44,14.39v9.74h9.74l5.09-.29c1-.05,2.44-.12,4.32-.22,1.88-.1,3.29-.17,4.25-.22-.29,1.83-.44,2.78-.44,2.86s.15,1.03.44,2.86c-3.59-.42-6.45-.62-8.57-.62l-5.24-.15h-9.59v19.67c0,3.69.05,6.48.15,8.39,5.79,0,11.54-.15,17.25-.44,2.73,0,5.64-.26,8.71-.77,0,2.51.05,4.42.15,5.71l-6.63-.15c-5.18-.2-9.12-.29-11.83-.29-.9,0-2.29.02-4.17.07-1.88.05-3.3.07-4.25.07-.81,0-2.1.02-3.88.07-1.78.05-3.14.07-4.07.07l.62-12.01.15-32.85-.15-8.39c0-1.15-.16-5.25-.48-12.3l10.36.29h13.81Z"/>
  </g>
</svg>